<?xml version="1.0" encoding="utf-8"?>
<!-- Generator: Adobe Illustrator 15.1.0, SVG Export Plug-In . SVG Version: 6.00 Build 0)  -->
<!DOCTYPE svg PUBLIC "-//W3C//DTD SVG 1.1//EN" "http://www.w3.org/Graphics/SVG/1.1/DTD/svg11.dtd">
<svg version="1.1" id="Layer_1" xmlns="http://www.w3.org/2000/svg" xmlns:xlink="http://www.w3.org/1999/xlink" x="0px" y="0px"
	 width="46px" height="17px" viewBox="0 0 46 17" enable-background="new 0 0 46 17" xml:space="preserve">
<polygon fill="#41AD49" points="0,0 9.5,8.501 0,17 46,17 46,0 "/>
<g>
	<defs>
		<rect id="SVGID_1_" width="46" height="17"/>
	</defs>
	<clipPath id="SVGID_2_">
		<use xlink:href="#SVGID_1_"  overflow="visible"/>
	</clipPath>
	<path clip-path="url(#SVGID_2_)" fill="#FFFFFF" d="M39.723,5.07l-1.018-0.537l-5.091,8.148l1.017,0.537L39.723,5.07z
		 M38.383,11.443c0-0.272,0.075-0.504,0.227-0.698c0.149-0.193,0.369-0.29,0.655-0.29c0.281,0,0.499,0.097,0.651,0.29
		c0.152,0.194,0.229,0.426,0.229,0.698v0.552c0,0.301-0.067,0.541-0.201,0.72c-0.133,0.179-0.355,0.269-0.666,0.269
		c-0.268,0-0.483-0.098-0.648-0.29c-0.164-0.193-0.247-0.427-0.247-0.698V11.443z M36.994,11.995c0,0.616,0.201,1.128,0.605,1.536
		c0.402,0.408,0.963,0.611,1.679,0.611c0.712,0,1.265-0.202,1.662-0.607c0.396-0.406,0.594-0.919,0.594-1.54v-0.552
		c0-0.615-0.199-1.128-0.598-1.536s-0.956-0.612-1.672-0.612c-0.712,0-1.269,0.205-1.67,0.616c-0.4,0.411-0.601,0.921-0.601,1.532
		V11.995z M33.399,5.578c0-0.277,0.075-0.512,0.225-0.705c0.151-0.194,0.367-0.29,0.649-0.29c0.281,0,0.498,0.096,0.65,0.29
		c0.153,0.193,0.229,0.428,0.229,0.705V6.13c0,0.277-0.075,0.509-0.226,0.698s-0.363,0.283-0.641,0.283
		c-0.287,0-0.506-0.094-0.659-0.283c-0.152-0.189-0.229-0.421-0.229-0.698V5.578z M32.01,6.13c0,0.616,0.2,1.126,0.602,1.532
		c0.4,0.406,0.96,0.609,1.676,0.609c0.711,0,1.265-0.203,1.661-0.609c0.396-0.406,0.595-0.916,0.595-1.532V5.578
		c0-0.62-0.199-1.135-0.595-1.543c-0.396-0.408-0.955-0.612-1.675-0.612c-0.712,0-1.268,0.205-1.666,0.615
		c-0.398,0.411-0.598,0.924-0.598,1.54V6.13z M28.565,10.426c0,0.684-0.125,1.207-0.376,1.572c-0.251,0.366-0.604,0.548-1.057,0.548
		c-0.464,0-0.821-0.182-1.074-0.548c-0.253-0.365-0.379-0.889-0.379-1.572V7.139c0-0.668,0.125-1.186,0.376-1.554
		c0.25-0.367,0.604-0.551,1.062-0.551c0.454,0,0.808,0.184,1.064,0.551c0.255,0.368,0.383,0.886,0.383,1.554V10.426z M30.649,7.354
		c0-1.217-0.324-2.177-0.972-2.879c-0.646-0.701-1.5-1.052-2.56-1.052c-1.063,0-1.918,0.351-2.56,1.052
		c-0.643,0.702-0.964,1.662-0.964,2.879v2.872c0,1.223,0.322,2.183,0.968,2.88c0.644,0.696,1.501,1.045,2.57,1.045
		c1.06,0,1.91-0.349,2.554-1.045c0.642-0.697,0.963-1.657,0.963-2.88V7.354z M18.99,6.788l0.215-0.465l0.043,0.007v3.789h-2.449
		L18.99,6.788z M21.339,3.573h-2.113l-4.325,6.911l0.1,1.253h4.247V14h2.091v-2.263h1.174v-1.618h-1.174V3.573z"/>
</g>
</svg>
