<?xml version="1.0" encoding="utf-8"?>
<!-- Generator: Adobe Illustrator 15.1.0, SVG Export Plug-In . SVG Version: 6.00 Build 0)  -->
<!DOCTYPE svg PUBLIC "-//W3C//DTD SVG 1.1//EN" "http://www.w3.org/Graphics/SVG/1.1/DTD/svg11.dtd">
<svg version="1.1" id="Layer_1" xmlns="http://www.w3.org/2000/svg" xmlns:xlink="http://www.w3.org/1999/xlink" x="0px" y="0px"
	 width="1086px" height="523.89px" viewBox="0 0 1086 523.89" enable-background="new 0 0 1086 523.89" xml:space="preserve">
<g>
	<defs>
		<rect id="SVGID_1_" x="413" y="186.536" width="114.95" height="99.464"/>
	</defs>
	<clipPath id="SVGID_2_">
		<use xlink:href="#SVGID_1_"  overflow="visible"/>
	</clipPath>
	<circle clip-path="url(#SVGID_2_)" fill="none" stroke="#808285" stroke-width="0.793" cx="470.475" cy="225.929" r="38.996"/>
	<path clip-path="url(#SVGID_2_)" fill="#58595B" d="M472.552,216.893c-3.229-0.684-7.839-0.76-10.851,0.175
		c-4.889-4.541-1.568-12.904,4.725-13.302C473.194,203.338,477.658,211.65,472.552,216.893"/>
	<path clip-path="url(#SVGID_2_)" fill="none" stroke="#58595B" stroke-width="0.899" stroke-miterlimit="10" d="M484.278,225.818
		c0.446,2.264,4.017,1.384,3.325-1.051c-0.162-0.57-0.771-1.438-2.275-0.875C484.378,224.249,484.049,224.658,484.278,225.818z
		 M486.028,215.842c0.173,0.55-1.267,2.447-0.875,4.375c2.456,1.803,5.074,3.444,6.301,6.477h3.5
		c0.405,5.277-3.031,7.669-6.476,9.626c-2.632,1.494-5.796,2.204-8.225,3.149c-0.279,1.189-0.279,3.362,0,4.551h-5.776
		c-0.705-0.986-1.32-2.063-1.925-3.149c-4.397,0.08-8.629-0.006-12.252-0.701c-0.773,0.856-0.14,2.801,0,3.851h-5.775
		c-1.064-1.841-2.113-3.752-2.45-6.301c-0.118-0.888,0.117-1.886-0.175-2.8c-0.58-1.808-2.425-3.106-2.626-5.776
		c-0.189-2.527,0.543-4.56,1.926-6.824c-1.657-0.592-1.983-4.229,0.35-4.376c0.731,0.096-0.575,0.854-0.525,1.399
		c0.187,0.63,0.514,1.119,1.05,1.401c1.875-2.033,4.268-3.549,7.175-4.551c0.826,0.633,1.326,1.592,2.101,2.274
		c3.707-1.086,9.056-1.47,12.426,0.175c0.412-0.871,0.917-1.648,1.225-2.625c2.286,0.631,4.013,1.821,5.6,3.15
		C481.82,217.468,483.609,216.34,486.028,215.842z"/>
	<path clip-path="url(#SVGID_2_)" fill="#FFFFFF" d="M464.625,207.213v0.029h1.247c0.208,0,0.444,0.048,0.707,0.146
		c0.363,0.161,0.611,0.39,0.742,0.684v0.012h-2.232c-0.008,0-0.166,0.255-0.476,0.766c0,0.019,0.008,0.028,0.024,0.028h2.806
		c0,0.116-0.02,0.23-0.058,0.343c-0.255,0.762-0.899,1.142-1.931,1.142c-0.22,0-0.412-0.013-0.574-0.04l-0.011,0.029v0.742
		c0,0.011,0.923,1.236,2.771,3.676h1.026c0.016,0,0.023-0.008,0.023-0.023v-0.15l-2.33-3.195c-0.205-0.271-0.308-0.423-0.308-0.458
		v-0.011c0.418,0,0.855-0.124,1.311-0.372c0.243-0.112,0.502-0.355,0.777-0.73c0.201-0.375,0.311-0.691,0.33-0.951h0.87
		c0.008-0.004,0.162-0.261,0.464-0.771c0-0.012-0.008-0.02-0.024-0.023h-1.345c-0.062-0.329-0.179-0.608-0.353-0.841h1.258
		c0.038-0.035,0.197-0.296,0.475-0.783v-0.011h-4.725C465.081,206.448,464.926,206.703,464.625,207.213"/>
	<g clip-path="url(#SVGID_2_)">
		<text transform="matrix(1 0 0 1 413 286)"><tspan x="0" y="0" fill="#58595B" font-family="'Lato-Regular'" font-size="14.1">A</tspan><tspan x="9.799" y="0" fill="#58595B" font-family="'Lato-Regular'" font-size="14.1">ff</tspan><tspan x="19.733" y="0" fill="#58595B" font-family="'Lato-Regular'" font-size="14.1">o</tspan><tspan x="28.291" y="0" fill="#58595B" font-family="'Lato-Regular'" font-size="14.1">r</tspan><tspan x="33.691" y="0" fill="#58595B" font-family="'Lato-Regular'" font-size="14.1">da</tspan><tspan x="49.695" y="0" fill="#58595B" font-family="'Lato-Regular'" font-size="14.1">b</tspan><tspan x="58.155" y="0" fill="#58595B" font-family="'Lato-Regular'" font-size="14.1">le </tspan><tspan x="74.187" y="0" fill="#58595B" font-family="'Lato-Regular'" font-size="14.1">P</tspan><tspan x="83.076" y="0" fill="#58595B" font-family="'Lato-Regular'" font-size="14.1">ri</tspan><tspan x="92.721" y="0" fill="#58595B" font-family="'Lato-Regular'" font-size="14.1">c</tspan><tspan x="99.89" y="0" fill="#58595B" font-family="'Lato-Regular'" font-size="14.1">e</tspan><tspan x="107.899" y="0" fill="#58595B" font-family="'Lato-Regular'" font-size="14.1">s</tspan></text>
	</g>
</g>
</svg>
