<?xml version="1.0" encoding="utf-8"?>
<!-- Generator: Adobe Illustrator 15.1.0, SVG Export Plug-In . SVG Version: 6.00 Build 0)  -->
<!DOCTYPE svg PUBLIC "-//W3C//DTD SVG 1.1//EN" "http://www.w3.org/Graphics/SVG/1.1/DTD/svg11.dtd">
<svg version="1.1" id="Layer_1" xmlns="http://www.w3.org/2000/svg" xmlns:xlink="http://www.w3.org/1999/xlink" x="0px" y="0px"
	 width="1086px" height="523.89px" viewBox="0 0 1086 523.89" enable-background="new 0 0 1086 523.89" xml:space="preserve">
<g>
	<defs>
		<rect id="SVGID_1_" x="290" y="186.536" width="141.352" height="99.464"/>
	</defs>
	<clipPath id="SVGID_2_">
		<use xlink:href="#SVGID_1_"  overflow="visible"/>
	</clipPath>
	<g clip-path="url(#SVGID_2_)">
		<text transform="matrix(1 0 0 1 290 286)"><tspan x="0" y="0" fill="#58595B" font-family="'Lato-Regular'" font-size="14.1">T</tspan><tspan x="7.339" y="0" fill="#58595B" font-family="'Lato-Regular'" font-size="14.1">r</tspan><tspan x="12.923" y="0" fill="#58595B" font-family="'Lato-Regular'" font-size="14.1">ai</tspan><tspan x="24.442" y="0" fill="#58595B" font-family="'Lato-Regular'" font-size="14.1">n</tspan><tspan x="32.86" y="0" fill="#58595B" font-family="'Lato-Regular'" font-size="14.1">e</tspan><tspan x="40.869" y="0" fill="#58595B" font-family="'Lato-Regular'" font-size="14.1">d </tspan><tspan x="53.474" y="0" fill="#58595B" font-family="'Lato-Regular'" font-size="14.1">P</tspan><tspan x="62.364" y="0" fill="#58595B" font-family="'Lato-Regular'" font-size="14.1">r</tspan><tspan x="67.764" y="0" fill="#58595B" font-family="'Lato-Regular'" font-size="14.1">o</tspan><tspan x="76.167" y="0" fill="#58595B" font-family="'Lato-Regular'" font-size="14.1">f</tspan><tspan x="81.434" y="0" fill="#58595B" font-family="'Lato-Regular'" font-size="14.1">e</tspan><tspan x="89.429" y="0" fill="#58595B" font-family="'Lato-Regular'" font-size="14.1">s</tspan><tspan x="96.098" y="0" fill="#58595B" font-family="'Lato-Regular'" font-size="14.1">s</tspan><tspan x="102.753" y="0" fill="#58595B" font-family="'Lato-Regular'" font-size="14.1">io</tspan><tspan x="115.259" y="0" fill="#58595B" font-family="'Lato-Regular'" font-size="14.1">n</tspan><tspan x="123.677" y="0" fill="#58595B" font-family="'Lato-Regular'" font-size="14.1">al</tspan><tspan x="135.14" y="0" fill="#58595B" font-family="'Lato-Regular'" font-size="14.1">s</tspan></text>
	</g>
</g>
<rect x="338.215" y="211.608" fill="none" stroke="#58595B" stroke-width="0.499" stroke-miterlimit="10" width="38.841" height="28.882"/>
<rect x="342.226" y="229.235" fill="#58595B" width="9.566" height="0.689"/>
<rect x="342.226" y="231.018" fill="#58595B" width="9.566" height="0.69"/>
<rect x="342.226" y="232.8" fill="#58595B" width="9.566" height="0.69"/>
<rect x="342.226" y="234.582" fill="#58595B" width="9.566" height="0.691"/>
<rect x="353.578" y="215.4" fill="#8AB8A2" width="9.566" height="12.624"/>
<rect x="353.578" y="229.235" fill="#221F20" width="9.566" height="0.689"/>
<rect x="353.578" y="231.018" fill="#58595B" width="9.566" height="0.69"/>
<rect x="353.578" y="232.8" fill="#58595B" width="9.566" height="0.69"/>
<rect x="353.578" y="234.582" fill="#58595B" width="9.566" height="0.691"/>
<rect x="364.559" y="215.4" fill="#EAEAEC" width="9.566" height="12.624"/>
<rect x="364.559" y="229.235" fill="#413C3C" width="9.566" height="0.689"/>
<rect x="364.559" y="231.018" fill="#413C3C" width="9.566" height="0.69"/>
<rect x="364.559" y="232.8" fill="#413C3C" width="9.566" height="0.69"/>
<rect x="364.559" y="234.582" fill="#413C3C" width="9.566" height="0.691"/>
<g>
	<defs>
		<rect id="SVGID_3_" x="290" y="186.536" width="141.352" height="99.464"/>
	</defs>
	<clipPath id="SVGID_4_">
		<use xlink:href="#SVGID_3_"  overflow="visible"/>
	</clipPath>
	<path clip-path="url(#SVGID_4_)" fill="#E17A3D" d="M355.777,223.062c0.047-0.144,1.339-0.34,2.626-0.381
		c1.287,0.041,2.476,0.204,2.524,0.347c0.094,0.288,0.197,2.62,0.109,3.3c-0.019,0.146-1.314,0.212-2.633,0.215
		c-1.32-0.003-2.615-0.069-2.633-0.215C355.681,225.647,355.682,223.35,355.777,223.062"/>
	<path clip-path="url(#SVGID_4_)" fill="#221F20" d="M358.216,223.095l0.475,0.389c0,0,0.292,2.089,0.292,2.182
		c0,0.092-0.562,0.626-0.674,0.626c-0.111,0-0.673-0.507-0.673-0.561c0-0.053,0.135-2.306,0.135-2.306L358.216,223.095z"/>
	<path clip-path="url(#SVGID_4_)" fill="#F7F8F9" d="M360.634,222.903c-0.05,0.022-1.648,0.784-1.734,0.784
		c-0.087,0-0.629-0.472-0.629-0.472s-0.548,0.472-0.677,0.472c-0.13,0-1.203-0.589-1.499-0.758
		C357.026,222.65,359.422,222.625,360.634,222.903"/>
	<path clip-path="url(#SVGID_4_)" fill="#FFDBAF" d="M355.95,220.133c-0.017-0.367,0.026-0.764,0.212-1.306
		c0.231-0.672,1.118-0.924,2.027-0.882c0.91-0.042,1.797,0.21,2.028,0.882c0.186,0.542,0.229,0.938,0.212,1.306
		c0.174,0.057,0.304,0.273,0.304,0.534c0,0.303-0.176,0.549-0.395,0.549c-0.018,0-0.036-0.003-0.053-0.006
		c-0.038,0.27-0.068,0.325-0.068,0.696c0,0.722-0.998,1.051-2.028,1.026c-1.029,0.024-1.993-0.305-1.993-1.026
		c0-0.371-0.064-0.427-0.101-0.696c-0.018,0.003-0.036,0.006-0.054,0.006c-0.219,0-0.395-0.246-0.395-0.549
		C355.646,220.406,355.776,220.189,355.95,220.133"/>
	<path clip-path="url(#SVGID_4_)" fill="#221615" d="M358.686,220.334c0,0.175,0.148,0.317,0.331,0.317s0.331-0.143,0.331-0.317
		c0-0.177-0.148-0.318-0.331-0.318S358.686,220.157,358.686,220.334"/>
	<path clip-path="url(#SVGID_4_)" fill="#221615" d="M357.032,220.35c0,0.176,0.148,0.317,0.331,0.317
		c0.183,0,0.331-0.142,0.331-0.317c0-0.177-0.148-0.318-0.331-0.318C357.18,220.031,357.032,220.173,357.032,220.35"/>
	<path clip-path="url(#SVGID_4_)" fill="#9E2A28" d="M357.49,221.596c0.792,0.731,1.341,0.183,1.49-0.001
		c0.027-0.033,0.025-0.052-0.037-0.054c-0.052-0.001-1.104,0.012-1.418,0.004C357.442,221.543,357.472,221.58,357.49,221.596"/>
	<path clip-path="url(#SVGID_4_)" fill="#332214" d="M356.126,220.729c0.229-0.055-0.081-1.142,0.089-1.736s0.842-0.921,0.842-0.921
		s-0.688-0.472-1.164,0.156c-0.637,0.841-0.261,1.494-0.077,2.043c0.054-0.059,0.123-0.085,0.134-0.089
		C356.068,220.51,356.078,220.742,356.126,220.729"/>
	<path clip-path="url(#SVGID_4_)" fill="#332214" d="M360.229,220.729c-0.229-0.055,0.081-1.142-0.089-1.736
		s-0.842-0.921-0.842-0.921s0.688-0.472,1.164,0.156c0.637,0.841,0.261,1.494,0.077,2.043c-0.054-0.059-0.123-0.085-0.134-0.089
		C360.287,220.51,360.277,220.742,360.229,220.729"/>
</g>
<polygon fill="#F2D1A7" points="372.215,224.534 367.55,224.653 368.417,222.587 370.92,222.564 "/>
<g>
	<defs>
		<rect id="SVGID_5_" x="290" y="186.536" width="141.352" height="99.464"/>
	</defs>
	<clipPath id="SVGID_6_">
		<use xlink:href="#SVGID_5_"  overflow="visible"/>
	</clipPath>
	<path clip-path="url(#SVGID_6_)" fill="#332214" d="M367.006,219.742c0.001,0.645,0.032,1.986,0.032,2.52
		c0,0.532,5.277,0.455,5.277-0.118s0.009-2.409-0.029-2.846c-0.038-0.438-0.629-1.764-2.661-1.764
		C367.592,217.534,367.005,219.068,367.006,219.742"/>
	<path clip-path="url(#SVGID_6_)" fill="#EFC84D" d="M366.856,222.915c0.036-0.1,0.676-0.277,1.584-0.328
		c0.194-0.012,0.821,1.899,1.302,1.896c0.492-0.003,0.906-1.919,1.074-1.912c0.959,0.041,1.695,0.204,1.734,0.311
		c0.104,0.288,0.218,2.62,0.121,3.3c-0.021,0.145-1.453,0.211-2.912,0.215c-1.459-0.004-2.891-0.07-2.911-0.215
		C366.75,225.502,366.751,223.203,366.856,222.915"/>
	<path clip-path="url(#SVGID_6_)" fill="#FFDBAF" d="M367.539,220.293c-0.016-0.367,0.025-0.899,0.201-1.441
		c0.218-0.672,1.058-0.924,1.919-0.882c0.861-0.042,1.701,0.21,1.919,0.882c0.176,0.542,0.217,1.074,0.201,1.441
		c0.165,0.057,0.288,0.273,0.288,0.533c0,0.304-0.167,0.55-0.374,0.55c-0.017,0-0.034-0.003-0.051-0.007
		c0,0.383-0.742,1.554-1.983,1.554c-1.24,0-1.983-1.009-1.983-1.554c-0.017,0.004-0.034,0.007-0.051,0.007
		c-0.207,0-0.374-0.246-0.374-0.55C367.25,220.566,367.374,220.35,367.539,220.293"/>
	<path clip-path="url(#SVGID_6_)" fill="#221615" d="M370.197,220.725c0,0.153,0.136,0.278,0.303,0.278
		c0.168,0,0.304-0.125,0.304-0.278c0-0.152-0.136-0.277-0.304-0.277C370.333,220.447,370.197,220.572,370.197,220.725"/>
	<path clip-path="url(#SVGID_6_)" fill="#221615" d="M368.681,220.738c0,0.153,0.136,0.278,0.303,0.278
		c0.168,0,0.304-0.125,0.304-0.278s-0.136-0.278-0.304-0.278C368.816,220.46,368.681,220.585,368.681,220.738"/>
	<path clip-path="url(#SVGID_6_)" fill="#9E2A28" d="M368.959,221.756c0.792,0.731,1.341,0.183,1.49-0.001
		c0.027-0.033,0.021-0.075-0.037-0.055c-0.029,0.012-0.282,0.169-0.674,0.169c-0.391,0-0.622-0.137-0.744-0.165
		C368.913,221.686,368.941,221.739,368.959,221.756"/>
	<path clip-path="url(#SVGID_6_)" fill="#332214" d="M367.663,220.89c0.229-0.055-0.08-1.142,0.089-1.737
		c0.17-0.594,0.842-1.057,0.842-1.057s-0.673-0.131-1.149,0.497c-0.637,0.841-0.275,1.29-0.092,1.839
		c0.054-0.059,0.123-0.085,0.135-0.089C367.604,220.67,367.615,220.901,367.663,220.89"/>
	<path clip-path="url(#SVGID_6_)" fill="#332214" d="M371.63,220.855c-0.229-0.055,0.081-1.142-0.089-1.736
		c-0.17-0.595-0.842-1.058-0.842-1.058s0.625-0.222,1.101,0.407c0.637,0.841,0.323,1.38,0.14,1.929
		c-0.054-0.059-0.123-0.085-0.135-0.089C371.688,220.636,371.678,220.868,371.63,220.855"/>
	<path clip-path="url(#SVGID_6_)" fill="#332214" d="M367.516,218.782c0-0.18-0.088-0.969,2.257-0.969
		c2.345,0,1.993,0.867,1.993,1.067c0,0.839-0.039,1.082-2.064,1.082c-0.242,0-0.071-0.381-0.218-0.523
		c-0.419,0.523-1.811,0.678-2.015,0.63C366.8,219.917,367.516,219.372,367.516,218.782"/>
</g>
<polygon fill="#E4E5E6" points="349.21,224.187 344.405,224.309 345.298,222.182 347.876,222.157 "/>
<g>
	<defs>
		<rect id="SVGID_7_" x="290" y="186.536" width="141.352" height="99.464"/>
	</defs>
	<clipPath id="SVGID_8_">
		<use xlink:href="#SVGID_7_"  overflow="visible"/>
	</clipPath>
	<path clip-path="url(#SVGID_8_)" fill="#939598" d="M343.844,219.251c0.001,0.663,0.033,2.046,0.033,2.594s5.435,0.47,5.435-0.121
		c0-0.59,0.009-2.48-0.03-2.932c-0.038-0.45-0.647-1.815-2.741-1.815C344.447,216.977,343.843,218.557,343.844,219.251"/>
	<path clip-path="url(#SVGID_8_)" fill="#7B7C7F" d="M343.69,222.52c0.037-0.104,0.696-0.287,1.632-0.339
		c0.199-0.012,0.845,1.957,1.341,1.954c0.506-0.004,0.933-1.978,1.106-1.971c0.988,0.043,1.746,0.21,1.786,0.32
		c0.107,0.297,0.225,2.699,0.124,3.398c-0.021,0.149-1.496,0.219-2.999,0.222c-1.502-0.003-2.977-0.072-2.998-0.222
		C343.582,225.184,343.583,222.816,343.69,222.52"/>
	<path clip-path="url(#SVGID_8_)" fill="#E4E5E6" d="M344.393,219.817c-0.017-0.378,0.025-0.926,0.207-1.483
		c0.225-0.692,1.09-0.952,1.977-0.908c0.887-0.044,1.752,0.216,1.976,0.908c0.182,0.558,0.224,1.105,0.207,1.483
		c0.17,0.06,0.297,0.282,0.297,0.55c0,0.312-0.172,0.565-0.385,0.565c-0.018,0-0.035-0.002-0.052-0.006c0,0.394-0.766,1.6-2.043,1.6
		c-1.278,0-2.043-1.04-2.043-1.6c-0.017,0.004-0.035,0.006-0.053,0.006c-0.213,0-0.385-0.253-0.385-0.565
		C344.096,220.1,344.223,219.877,344.393,219.817"/>
	<path clip-path="url(#SVGID_8_)" fill="#221615" d="M347.131,220.263c0,0.158,0.14,0.286,0.312,0.286
		c0.173,0,0.313-0.128,0.313-0.286c0-0.157-0.14-0.286-0.313-0.286C347.271,219.977,347.131,220.105,347.131,220.263"/>
	<path clip-path="url(#SVGID_8_)" fill="#221615" d="M345.569,220.276c0,0.158,0.14,0.286,0.312,0.286
		c0.173,0,0.313-0.128,0.313-0.286c0-0.157-0.14-0.285-0.313-0.285C345.709,219.991,345.569,220.119,345.569,220.276"/>
	<path clip-path="url(#SVGID_8_)" fill="#FFFFFF" d="M345.856,221.324c0.816,0.754,1.381,0.189,1.535-0.001
		c0.027-0.034,0.022-0.077-0.038-0.055c-0.03,0.011-0.291,0.173-0.695,0.173c-0.403,0-0.64-0.141-0.766-0.17
		C345.809,221.252,345.838,221.308,345.856,221.324"/>
	<path clip-path="url(#SVGID_8_)" fill="#939598" d="M344.37,218.262c0-0.186-0.091-0.997,2.325-0.997
		c2.415,0,2.053,0.893,2.053,1.099c0,0.864-0.04,1.115-2.127,1.115c-0.248,0-0.072-0.394-0.224-0.539
		c-0.432,0.538-1.865,0.697-2.076,0.649C343.633,219.431,344.37,218.869,344.37,218.262"/>
	<path clip-path="url(#SVGID_8_)" fill="#808285" d="M383.147,242.416c0.361,0.427,0.307,1.065-0.12,1.427l-2.282,1.929
		c-0.428,0.361-1.067,0.308-1.428-0.12l-12.008-14.213c-0.361-0.427-0.307-1.066,0.12-1.428l2.282-1.928
		c0.428-0.361,1.067-0.308,1.428,0.12L383.147,242.416z"/>
	<path clip-path="url(#SVGID_8_)" fill="#FFFFFF" d="M372.233,227.625c1.327,1.569,1.129,3.919-0.441,5.246
		c-1.57,1.326-3.919,1.129-5.246-0.441c-1.326-1.571,0.048-2.527,1.618-3.853C369.734,227.25,370.906,226.055,372.233,227.625"/>
	<path clip-path="url(#SVGID_8_)" fill="#EAEAEC" d="M363.01,211.661c5.691,0.579,9.835,5.661,9.256,11.353
		c-0.578,5.69-5.661,9.835-11.351,9.256c-5.691-0.578-9.836-5.661-9.257-11.353C352.237,215.228,357.318,211.082,363.01,211.661"/>
	<path clip-path="url(#SVGID_8_)" fill="#808285" d="M353.415,221.097c-0.479,4.713,2.965,8.938,7.678,9.416
		c4.713,0.479,8.937-2.965,9.416-7.678c0.48-4.713-2.965-8.938-7.678-9.416C358.118,212.938,353.894,216.384,353.415,221.097
		 M374.238,223.214c-0.333,3.279-1.924,6.231-4.478,8.314c-2.555,2.083-5.767,3.046-9.046,2.714
		c-3.279-0.335-6.232-1.925-8.315-4.479c-2.083-2.555-3.046-5.767-2.713-9.046c0.334-3.279,1.924-6.232,4.478-8.315
		c2.555-2.083,5.767-3.047,9.046-2.713c3.279,0.333,6.232,1.924,8.315,4.479C373.608,216.722,374.572,219.935,374.238,223.214"/>
</g>
<polygon fill="#FFFFFF" points="365.11,224.829 359.045,224.983 360.173,222.298 363.426,222.268 "/>
<g>
	<defs>
		<rect id="SVGID_9_" x="290" y="186.536" width="141.352" height="99.464"/>
	</defs>
	<clipPath id="SVGID_10_">
		<use xlink:href="#SVGID_9_"  overflow="visible"/>
	</clipPath>
	<path clip-path="url(#SVGID_10_)" fill="#A7A9AC" d="M358.337,218.6c0.001,0.837,0.041,2.582,0.041,3.274
		c0,0.691,6.86,0.592,6.86-0.153s0.012-3.132-0.037-3.7c-0.049-0.568-0.817-2.291-3.46-2.291
		C359.1,215.729,358.335,217.723,358.337,218.6"/>
	<path clip-path="url(#SVGID_10_)" fill="#808285" d="M358.143,222.725c0.047-0.13,0.879-0.362,2.059-0.428
		c0.252-0.015,1.067,2.47,1.693,2.467c0.64-0.004,1.178-2.496,1.396-2.487c1.247,0.055,2.204,0.266,2.254,0.404
		c0.136,0.374,0.284,3.406,0.157,4.29c-0.027,0.188-1.888,0.274-3.785,0.279c-1.897-0.005-3.758-0.092-3.785-0.279
		C358.005,226.087,358.007,223.099,358.143,222.725"/>
	<path clip-path="url(#SVGID_10_)" fill="#FFFFFF" d="M359.03,219.314c-0.021-0.477,0.032-1.169,0.261-1.874
		c0.284-0.873,1.375-1.2,2.495-1.145c1.119-0.056,2.211,0.271,2.495,1.145c0.229,0.705,0.282,1.397,0.261,1.874
		c0.215,0.074,0.375,0.356,0.375,0.694c0,0.394-0.218,0.713-0.486,0.713c-0.023,0-0.045-0.003-0.067-0.007
		c0,0.497-0.965,2.019-2.578,2.019c-1.613,0-2.578-1.312-2.578-2.019c-0.022,0.004-0.044,0.007-0.067,0.007
		c-0.268,0-0.486-0.319-0.486-0.713C358.655,219.671,358.815,219.389,359.03,219.314"/>
	<path clip-path="url(#SVGID_10_)" fill="#221615" d="M362.486,219.877c0,0.199,0.177,0.361,0.394,0.361
		c0.218,0,0.395-0.162,0.395-0.361s-0.177-0.361-0.395-0.361C362.663,219.516,362.486,219.678,362.486,219.877"/>
	<path clip-path="url(#SVGID_10_)" fill="#221615" d="M362.88,219.516c-0.218,0-0.394,0.162-0.394,0.361
		c0,0.014,0.001,0.027,0.002,0.042c0.053,0.151,0.208,0.263,0.392,0.263c0.184,0,0.34-0.111,0.392-0.264
		c0.002-0.014,0.002-0.027,0.002-0.041C363.274,219.678,363.099,219.516,362.88,219.516"/>
	<path clip-path="url(#SVGID_10_)" fill="#221615" d="M360.515,219.895c0,0.199,0.177,0.36,0.394,0.36
		c0.218,0,0.395-0.161,0.395-0.36s-0.177-0.361-0.395-0.361C360.691,219.533,360.515,219.695,360.515,219.895"/>
	<path clip-path="url(#SVGID_10_)" d="M360.876,221.217c1.029,0.952,1.744,0.237,1.937-0.001c0.035-0.043,0.028-0.098-0.048-0.07
		c-0.038,0.014-0.367,0.219-0.876,0.219c-0.509,0-0.809-0.178-0.968-0.215C360.816,221.126,360.854,221.195,360.876,221.217"/>
	<path clip-path="url(#SVGID_10_)" fill="#A7A9AC" d="M359.191,220.091c0.298-0.072-0.105-1.484,0.116-2.258
		c0.221-0.772,1.094-1.374,1.094-1.374s-0.874-0.171-1.494,0.647c-0.827,1.092-0.357,1.676-0.12,2.39
		c0.072-0.078,0.161-0.111,0.176-0.117C359.116,219.804,359.129,220.106,359.191,220.091"/>
	<path clip-path="url(#SVGID_10_)" fill="#A7A9AC" d="M364.349,220.047c-0.298-0.072,0.105-1.485-0.116-2.258
		c-0.221-0.772-1.094-1.374-1.094-1.374s0.813-0.288,1.432,0.529c0.828,1.093,0.42,1.793,0.182,2.508
		c-0.072-0.078-0.161-0.111-0.176-0.117C364.424,219.76,364.412,220.062,364.349,220.047"/>
	<path clip-path="url(#SVGID_10_)" fill="#A7A9AC" d="M359.001,217.351c0-0.233-0.115-1.258,2.934-1.258s2.591,1.127,2.591,1.387
		c0,1.091-0.05,1.407-2.684,1.407c-0.314,0-0.091-0.496-0.282-0.681c-0.545,0.68-2.354,0.881-2.621,0.819
		C358.071,218.826,359.001,218.118,359.001,217.351"/>
	<circle clip-path="url(#SVGID_10_)" fill="none" stroke="#808285" stroke-width="0.793" cx="360.676" cy="225.929" r="38.996"/>
</g>
</svg>
