<?xml version="1.0" encoding="utf-8"?>
<!-- Generator: Adobe Illustrator 15.1.0, SVG Export Plug-In . SVG Version: 6.00 Build 0)  -->
<!DOCTYPE svg PUBLIC "-//W3C//DTD SVG 1.1//EN" "http://www.w3.org/Graphics/SVG/1.1/DTD/svg11.dtd">
<svg version="1.1" id="Layer_1" xmlns="http://www.w3.org/2000/svg" xmlns:xlink="http://www.w3.org/1999/xlink" x="0px" y="0px"
	 width="595.28px" height="841.89px" viewBox="0 0 595.28 841.89" enable-background="new 0 0 595.28 841.89" xml:space="preserve">
<g>
	<defs>
		<rect id="SVGID_1_" x="238" y="348.536" width="114.646" height="99.464"/>
	</defs>
	<clipPath id="SVGID_2_">
		<use xlink:href="#SVGID_1_"  overflow="visible"/>
	</clipPath>
	<g clip-path="url(#SVGID_2_)">
		<text transform="matrix(1 0 0 1 238 448)"><tspan x="0" y="0" fill="#58595B" font-family="'Lato-Regular'" font-size="14.1">Cle</tspan><tspan x="21.883" y="0" fill="#58595B" font-family="'Lato-Regular'" font-size="14.1">an </tspan><tspan x="42.018" y="0" fill="#58595B" font-family="'Lato-Regular'" font-size="14.1">&amp; </tspan><tspan x="56.794" y="0" fill="#58595B" font-family="'Lato-Regular'" font-size="14.1">Hy</tspan><tspan x="75.617" y="0" fill="#58595B" font-family="'Lato-Regular'" font-size="14.1">gie</tspan><tspan x="95.47" y="0" fill="#58595B" font-family="'Lato-Regular'" font-size="14.1">n</tspan><tspan x="103.888" y="0" fill="#58595B" font-family="'Lato-Regular'" font-size="14.1">i</tspan><tspan x="107.836" y="0" fill="#58595B" font-family="'Lato-Regular'" font-size="14.1">c</tspan></text>
	</g>
	<circle clip-path="url(#SVGID_2_)" fill="none" stroke="#808285" stroke-width="0.793" cx="295.323" cy="387.929" r="38.996"/>
	<path clip-path="url(#SVGID_2_)" fill="none" stroke="#505050" stroke-miterlimit="10" d="M290.551,380.722v3 M298.551,380.722v3
		 M294.551,380.722v3 M296.551,376.722v3 M292.551,376.722v3 M302.326,384.739L302.326,384.739c0.473-0.579,1.051-1.073,1.744-1.458
		c2.908-1.612,6.567-0.57,8.174,2.327c0.629,1.136,0.844,2.387,0.705,3.588 M273.609,401.905c-0.244,0.352-0.452,0.738-0.606,1.161
		c-0.941,2.583,0.332,5.42,2.844,6.335c2.401,0.875,5.065-0.322,6.118-2.687 M287.692,385.881c-1.856-0.676-3.837-0.226-5.219,0.989
		c-0.556-0.498-1.204-0.896-1.949-1.167c-3.124-1.138-6.577,0.462-7.711,3.575c-0.444,1.22-0.461,2.49-0.136,3.653 M275.262,403.008
		c-0.446-0.049-0.894-0.15-1.334-0.312c-2.942-1.072-4.462-4.317-3.394-7.248c0.682-1.871,2.251-3.161,4.063-3.572 M300.551,370.722
		v4h-12v-4 M290.551,370.722h-3c-1.689,0.011-2.772,0.473-4.246,1.297l-12.754,7.703 M270.551,371.701l8-4.99
		c3.463-2.191,7.167-2.989,15-2.989h5c1.656,0,3,1.343,3,3v4h-8 M297.551,391.722h-15c-1.104,0-2,0.896-2,2v2 M316.551,405.722h-5
		c-1.762,0.005-3.736,2-6,2h-19c-1.104,0-2-0.896-2-2v-2 M316.551,391.722h-5c-1.704,0.005-3.077-0.458-4.24-1.549
		c-1.33-1.244-1.824-2.458-3.76-2.451c-1.508,0.004-9.169,0.001-13,0c-1.022,0-1.221,0.98-0.834,1.927
		c0.305,0.744,0.808,1.497,1.46,2.071 M293.551,395.722h-14c-1.104,0-2,0.896-2,2c0,1.104,0.896,2,2,2h14 M293.551,403.722h-11
		c-1.104,0-2-0.896-2-2v-2"/>
</g>
</svg>
