<?xml version="1.0" encoding="utf-8"?>
<!-- Generator: Adobe Illustrator 15.1.0, SVG Export Plug-In . SVG Version: 6.00 Build 0)  -->
<!DOCTYPE svg PUBLIC "-//W3C//DTD SVG 1.1//EN" "http://www.w3.org/Graphics/SVG/1.1/DTD/svg11.dtd">
<svg version="1.1" id="Layer_1" xmlns="http://www.w3.org/2000/svg" xmlns:xlink="http://www.w3.org/1999/xlink" x="0px" y="0px"
	 width="595.28px" height="841.89px" viewBox="0 0 595.28 841.89" enable-background="new 0 0 595.28 841.89" xml:space="preserve">
<g>
	<defs>
		<rect id="SVGID_1_" x="228" y="348.536" width="135.387" height="99.464"/>
	</defs>
	<clipPath id="SVGID_2_">
		<use xlink:href="#SVGID_1_"  overflow="visible"/>
	</clipPath>
	<g clip-path="url(#SVGID_2_)">
		<text transform="matrix(1 0 0 1 228 448)"><tspan x="0" y="0" fill="#58595B" font-family="'Lato-Regular'" font-size="14.1">24x</tspan><tspan x="25.069" y="0" fill="#58595B" font-family="'Lato-Regular'" font-size="14.1"> </tspan><tspan x="29.229" y="0" fill="#58595B" font-family="'Lato-Regular'" font-size="14.1">7</tspan><tspan x="37.971" y="0" fill="#58595B" font-family="'Lato-Regular'" font-size="14.1"> </tspan><tspan x="41.665" y="0" fill="#58595B" font-family="'Lato-Regular'" font-size="14.1">A</tspan><tspan x="51.746" y="0" fill="#58595B" font-family="'Lato-Regular'" font-size="14.1">pp</tspan><tspan x="68.651" y="0" fill="#58595B" font-family="'Lato-Regular'" font-size="14.1">oi</tspan><tspan x="81.158" y="0" fill="#58595B" font-family="'Lato-Regular'" font-size="14.1">n</tspan><tspan x="89.49" y="0" fill="#58595B" font-family="'Lato-Regular'" font-size="14.1">tme</tspan><tspan x="115.237" y="0" fill="#58595B" font-family="'Lato-Regular'" font-size="14.1">n</tspan><tspan x="123.57" y="0" fill="#58595B" font-family="'Lato-Regular'" font-size="14.1">t</tspan><tspan x="129.175" y="0" fill="#58595B" font-family="'Lato-Regular'" font-size="14.1">s</tspan></text>
	</g>
	<circle clip-path="url(#SVGID_2_)" fill="none" stroke="#000000" stroke-width="0.793" cx="295.693" cy="387.929" r="38.996"/>
	<path clip-path="url(#SVGID_2_)" fill="#676767" d="M292.616,392.749h-4.286c-0.365,0-0.66,0.296-0.66,0.66v2.374
		c0,0.365,0.295,0.66,0.66,0.66h3.906c0.038-1.199,0.227-2.36,0.55-3.466C292.707,392.872,292.694,392.854,292.616,392.749"/>
	<path clip-path="url(#SVGID_2_)" fill="#676767" d="M287.679,398.407v2.369c0,0.364,0.296,0.66,0.66,0.66h3.608
		c0.364,0,0.66-0.296,0.66-0.66v-0.647c-0.184-0.771-0.304-1.566-0.353-2.382h-3.915
		C287.975,397.747,287.679,398.042,287.679,398.407"/>
	<path clip-path="url(#SVGID_2_)" fill="#676767" d="M303.635,377.613c1.112,0,2.014-0.9,2.014-2.014v-4.094
		c0-1.112-0.901-2.015-2.014-2.015c-1.111,0-2.014,0.902-2.014,2.015v4.094C301.621,376.713,302.523,377.613,303.635,377.613"/>
	<path clip-path="url(#SVGID_2_)" fill="#676767" d="M284.437,387.736h-3.626c-0.364,0-0.66,0.296-0.66,0.66v2.374
		c0,0.364,0.296,0.66,0.66,0.66h3.626c0.365,0,0.66-0.296,0.66-0.66v-2.374C285.097,388.032,284.801,387.736,284.437,387.736"/>
	<path clip-path="url(#SVGID_2_)" fill="#676767" d="M284.171,377.613c1.112,0,2.014-0.9,2.014-2.014v-4.094
		c0-1.112-0.902-2.015-2.014-2.015c-1.112,0-2.014,0.902-2.014,2.015v4.094C282.157,376.713,283.059,377.613,284.171,377.613"/>
	<path clip-path="url(#SVGID_2_)" fill="#676767" d="M299.475,382.725h-3.627c-0.365,0-0.66,0.296-0.66,0.66v2.371
		c0,0.364,0.295,0.659,0.66,0.659h1.099c0.956-0.848,2.027-1.569,3.188-2.134v-0.896
		C300.135,383.021,299.838,382.725,299.475,382.725"/>
	<path clip-path="url(#SVGID_2_)" fill="#676767" d="M280.811,396.43h3.627c0.365,0,0.66-0.296,0.66-0.66v-2.359
		c0-0.365-0.295-0.66-0.66-0.66h-3.627c-0.365,0-0.66,0.295-0.66,0.66v2.359C280.15,396.134,280.445,396.43,280.811,396.43"/>
	<path clip-path="url(#SVGID_2_)" fill="#676767" d="M288.339,391.421h3.608c0.364,0,0.66-0.295,0.66-0.66v-2.369
		c0-0.364-0.296-0.66-0.66-0.66h-3.608c-0.365,0-0.66,0.296-0.66,0.66v2.369C287.679,391.126,287.974,391.421,288.339,391.421"/>
	<path clip-path="url(#SVGID_2_)" fill="#676767" d="M280.811,401.445h3.626c0.364,0,0.66-0.295,0.66-0.659v-2.374
		c0-0.364-0.296-0.66-0.66-0.66h-3.626c-0.365,0-0.66,0.296-0.66,0.66v2.374C280.151,401.15,280.446,401.445,280.811,401.445"/>
	<path clip-path="url(#SVGID_2_)" fill="#676767" d="M278.696,402.965c-0.799,0-1.447-0.648-1.447-1.447v-20.982h33.307v3.03
		c0.886,0.288,1.732,0.662,2.531,1.112v-8.809c0-1.278-1.037-2.316-2.317-2.316h-4.155v2.048c0,1.643-1.337,2.979-2.98,2.979
		c-1.643,0-2.979-1.337-2.979-2.979v-2.048H287.15v2.048c0,1.643-1.336,2.979-2.98,2.979c-1.643,0-2.98-1.337-2.98-2.979v-2.048
		h-4.155c-1.28,0-2.317,1.038-2.317,2.316v27.473c0,1.278,1.037,2.315,2.317,2.315h18.282c-0.665-0.827-1.241-1.728-1.707-2.692
		H278.696z"/>
	<path clip-path="url(#SVGID_2_)" fill="#676767" d="M288.329,386.417h3.627c0.364,0,0.66-0.296,0.66-0.66v-2.374
		c0-0.364-0.296-0.66-0.66-0.66h-3.627c-0.365,0-0.66,0.296-0.66,0.66v2.374C287.669,386.121,287.964,386.417,288.329,386.417"/>
	<path clip-path="url(#SVGID_2_)" fill="#676767" d="M280.811,386.417h3.627c0.364,0,0.66-0.296,0.66-0.659v-2.374
		c0-0.364-0.296-0.66-0.66-0.66h-3.627c-0.365,0-0.66,0.296-0.66,0.66v2.374C280.151,386.121,280.446,386.417,280.811,386.417"/>
	<path clip-path="url(#SVGID_2_)" fill="#676767" d="M306.236,406.611c-5.369,0-9.719-4.352-9.719-9.72s4.35-9.719,9.719-9.719
		c5.367,0,9.719,4.351,9.719,9.719S311.604,406.611,306.236,406.611 M306.236,384.559c-6.812,0-12.333,5.522-12.333,12.333
		c0,6.812,5.522,12.333,12.333,12.333c6.811,0,12.332-5.521,12.332-12.333C318.568,390.081,313.047,384.559,306.236,384.559"/>
	<path clip-path="url(#SVGID_2_)" fill="#676767" d="M312.439,396.279h-5.111v-5.373c0-0.604-0.488-1.092-1.093-1.092
		c-0.603,0-1.092,0.488-1.092,1.092v5.576c0,1.093,0.89,1.982,1.981,1.982h5.314c0.604,0,1.094-0.489,1.094-1.093
		S313.043,396.279,312.439,396.279"/>
</g>
</svg>
