<?xml version="1.0" encoding="utf-8"?>
<!-- Generator: Adobe Illustrator 15.1.0, SVG Export Plug-In . SVG Version: 6.00 Build 0)  -->
<!DOCTYPE svg PUBLIC "-//W3C//DTD SVG 1.1//EN" "http://www.w3.org/Graphics/SVG/1.1/DTD/svg11.dtd">
<svg version="1.1" id="Layer_1" xmlns="http://www.w3.org/2000/svg" xmlns:xlink="http://www.w3.org/1999/xlink" x="0px" y="0px"
	 width="28.667px" height="38.402px" viewBox="0 0 28.667 38.402" enable-background="new 0 0 28.667 38.402" xml:space="preserve">
<g>
	<defs>
		<rect id="SVGID_1_" x="2.358" y="7.119" width="22.918" height="22.332"/>
	</defs>
	<clipPath id="SVGID_2_">
		<use xlink:href="#SVGID_1_"  overflow="visible"/>
	</clipPath>
	<path clip-path="url(#SVGID_2_)" fill="none" stroke="#D2232A" stroke-width="0.45" stroke-miterlimit="10" d="M11.924,22.691
		c-3.318,0-6.008-2.688-6.008-6.009c0-3.316,2.689-6.007,6.008-6.007c3.317,0,6.006,2.69,6.006,6.007
		C17.93,20.002,15.242,22.691,11.924,22.691 M24.557,25.845l-4.199-4.066c-0.117-0.137-0.254-0.247-0.396-0.345
		c0.825-1.392,1.3-3.015,1.3-4.752c0-5.157-4.182-9.338-9.338-9.338c-5.158,0-9.342,4.181-9.342,9.338
		c0,5.16,4.184,9.339,9.342,9.339c1.961,0,3.779-0.604,5.282-1.639c0.017,0.02,0.026,0.045,0.044,0.062l4.199,4.067
		c0.736,0.857,2.029,0.957,2.887,0.222C25.195,27.996,25.294,26.704,24.557,25.845"/>
</g>
</svg>
